mastitorrents.com
  
http://mastitorrents.com/forums/index.php

Manchivadu (2011) Telugu 1CD DTH Rip XviD MP3-=MTR=-@Mastitorrents
 
http://thepiratebay.org/user/HDvideos/0/7

General
Complete name                    : Manchivadu (2011) - 1CD - DTH - Rip - XviD - MP3
Format                           : AVI
Format/Info                      : Audio Video Interleave
File size                        : 769 MiB
Duration                         : 2h 4mn
Overall bit rate                 : 861 Kbps
Writing application              : Lavf51.12.2

Video
ID                               : 0
Format                           : xvid
Codec ID                         : xvid
Duration                         : 2h 4mn
Bit rate                         : 752 Kbps
Width                            : 720 pixels
Height                           : 480 pixels
Display aspect ratio             : 3:2
Frame rate                       : 25.000 fps
Standard                         : NTSC
Bits/(Pixel*Frame)               : 0.087
Stream size                      : 672 MiB (87%)

Audio
ID                               : 1
Format                           : MPEG Audio
Format version                   : Version 1
Format profile                   : Layer 3
Mode                             : Joint stereo
Mode extension                   : MS Stereo
Codec ID                         : 55
Codec ID/Hint                    : MP3
Duration                         : 2h 4mn
Bit rate mode                    : Constant
Bit rate                         : 96.0 Kbps
Channel(s)                       : 2 channels
Sampling rate                    : 48.0 KHz
Compression mode                 : Lossy
Stream size                      : 85.7 MiB (11%)
Alignment                        : Aligned on interleaves
Interleave, duration             : 24 ms (0.60 video frame)
Interleave, preload duration     : 25 ms

Credits to Original Ripper

Recommended Player:VLC Player

facebook. com/MastiTorrents

facebook. com/MastiTorrentsReleasers	